<svg xmlns="http://www.w3.org/2000/svg" xmlns:xlink="http://www.w3.org/1999/xlink" width="20" height="20" viewBox="0 0 20 20" fill="none">
<path d="M10.18 1.07001C10.0635 1.02468 9.93659 1.02468 9.82003 1.07001L2.29003 4.00001C1.85369 4.1697 1.86588 4.79196 2.31003 4.94001L9.84003 7.45001C9.94266 7.48422 10.0574 7.48422 10.16 7.45001L17.69 4.94001C18.1342 4.79196 18.1464 4.1697 17.71 4.00001L10.18 1.07001ZM10.07 2.02971C10.0239 2.01204 9.97612 2.01204 9.93003 2.02971L4.52003 4.09971C4.34472 4.16691 4.35191 4.42034 4.53003 4.47971L9.94003 6.27971C9.98108 6.2934 10.019 6.2934 10.06 6.27971L15.47 4.47971C15.6481 4.42034 15.6553 4.16691 15.48 4.09971L10.07 2.02971Z" fill-rule="evenodd"  fill="#B2BBD6" >
</path>
<path d="M1.67 5.74004C1.34469 5.62522 1 5.86506 1 6.21004L1 15.65C1 15.862 1.13009 16.0495 1.33 16.12L8.83 18.76C9.15531 18.8749 9.5 18.635 9.5 18.29L9.5 8.85004C9.5 8.63805 9.36991 8.45059 9.17 8.38004L1.67 5.74004ZM18.33 5.74004C18.6553 5.62522 19 5.86506 19 6.21004L19 15.65C19 15.862 18.8699 16.0495 18.67 16.12L11.17 18.76C10.8447 18.8749 10.5 18.635 10.5 18.29L10.5 8.85004C10.5 8.63805 10.6301 8.45059 10.83 8.38004L18.33 5.74004Z" fill-rule="evenodd"  fill="url(#linear_fill_74_2)" fill-opacity="1">
</path>
<defs>
<linearGradient id="linear_fill_74_2" x1="10" y1="5.7109375" x2="10" y2="18.789016723632812" gradientUnits="userSpaceOnUse">
<stop offset="0" stop-color="#376AF5"  />
<stop offset="1" stop-color="#45AEFF"  />
</linearGradient>
</defs>
</svg>
