<svg xmlns="http://www.w3.org/2000/svg" xmlns:xlink="http://www.w3.org/1999/xlink" width="20" height="20" viewBox="0 0 20 20" fill="none">
<path d="M4.16667 5.83333C5.08712 5.83333 5.83333 5.08712 5.83333 4.16667C5.83333 3.24619 5.08712 2.5 4.16667 2.5C3.24619 2.5 2.5 3.24619 2.5 4.16667C2.5 5.08712 3.24619 5.83333 4.16667 5.83333Z"   fill="#465A91" >
</path>
<path d="M9.99998 5.83333C10.9204 5.83333 11.6666 5.08712 11.6666 4.16667C11.6666 3.24619 10.9204 2.5 9.99998 2.5C9.07952 2.5 8.33331 3.24619 8.33331 4.16667C8.33331 5.08712 9.07952 5.83333 9.99998 5.83333Z"   fill="#465A91" >
</path>
<path d="M15.8334 5.83333C16.7538 5.83333 17.5 5.08712 17.5 4.16667C17.5 3.24619 16.7538 2.5 15.8334 2.5C14.9129 2.5 14.1667 3.24619 14.1667 4.16667C14.1667 5.08712 14.9129 5.83333 15.8334 5.83333Z"   fill="#465A91" >
</path>
<path d="M4.16667 11.6667C5.08712 11.6667 5.83333 10.9205 5.83333 10C5.83333 9.07958 5.08712 8.33337 4.16667 8.33337C3.24619 8.33337 2.5 9.07958 2.5 10C2.5 10.9205 3.24619 11.6667 4.16667 11.6667Z"   fill="#465A91" >
</path>
<path d="M9.99998 11.6667C10.9204 11.6667 11.6666 10.9205 11.6666 10C11.6666 9.07958 10.9204 8.33337 9.99998 8.33337C9.07952 8.33337 8.33331 9.07958 8.33331 10C8.33331 10.9205 9.07952 11.6667 9.99998 11.6667Z"   fill="#465A91" >
</path>
<path d="M15.8334 11.6667C16.7538 11.6667 17.5 10.9205 17.5 10C17.5 9.07958 16.7538 8.33337 15.8334 8.33337C14.9129 8.33337 14.1667 9.07958 14.1667 10C14.1667 10.9205 14.9129 11.6667 15.8334 11.6667Z"   fill="#465A91" >
</path>
<path d="M4.16667 17.5C5.08712 17.5 5.83333 16.7537 5.83333 15.8333C5.83333 14.9128 5.08712 14.1666 4.16667 14.1666C3.24619 14.1666 2.5 14.9128 2.5 15.8333C2.5 16.7537 3.24619 17.5 4.16667 17.5Z"   fill="#465A91" >
</path>
<path d="M9.99998 17.5C10.9204 17.5 11.6666 16.7537 11.6666 15.8333C11.6666 14.9128 10.9204 14.1666 9.99998 14.1666C9.07952 14.1666 8.33331 14.9128 8.33331 15.8333C8.33331 16.7537 9.07952 17.5 9.99998 17.5Z"   fill="#465A91" >
</path>
<path d="M15.8334 17.5C16.7538 17.5 17.5 16.7537 17.5 15.8333C17.5 14.9128 16.7538 14.1666 15.8334 14.1666C14.9129 14.1666 14.1667 14.9128 14.1667 15.8333C14.1667 16.7537 14.9129 17.5 15.8334 17.5Z"   fill="#465A91" >
</path>
</svg>
