<svg xmlns="http://www.w3.org/2000/svg" xmlns:xlink="http://www.w3.org/1999/xlink" width="16" height="16" viewBox="0 0 16 16" fill="none"><defs><rect id="path_0" x="0" y="0" width="16" height="16" /></defs><g opacity="1" transform="translate(0 0)  rotate(0 8 8)"><mask id="bg-mask-0" fill="white"><use xlink:href="#path_0"></use></mask><g mask="url(#bg-mask-0)" ><path id="路径 1" fill-rule="evenodd" style="fill:currentColor" transform="translate(4 6.333333333333333)  rotate(0 4 2)" opacity="1" d="M0,0L4,4L8,0L0,0Z " /><path id="路径 1 (轮廓)" fill-rule="evenodd" style="fill:currentColor" transform="translate(3.3333330000004935 5.666666333333296)  rotate(0 4.6666685 2.6666685)" opacity="1" d="M0.3 0.11C0.26 0.14 0.23 0.16 0.2 0.2C0.16 0.23 0.14 0.26 0.11 0.3C0.09 0.33 0.07 0.37 0.05 0.41C0.03 0.45 0.02 0.49 0.01 0.54C0 0.58 0 0.62 0 0.67C0 0.76 0.02 0.84 0.05 0.92C0.08 1 0.13 1.08 0.2 1.14L4.2 5.14C4.23 5.17 4.26 5.2 4.3 5.22C4.33 5.25 4.37 5.27 4.41 5.28C4.45 5.3 4.49 5.31 4.54 5.32C4.58 5.33 4.62 5.33 4.67 5.33C4.71 5.33 4.75 5.33 4.8 5.32C4.84 5.31 4.88 5.3 4.92 5.28C4.96 5.27 5 5.25 5.04 5.22C5.07 5.2 5.11 5.17 5.14 5.14L9.14 1.14C9.2 1.08 9.25 1 9.28 0.92C9.32 0.84 9.33 0.76 9.33 0.67C9.33 0.58 9.32 0.49 9.28 0.41C9.25 0.33 9.2 0.26 9.14 0.2C9.08 0.13 9 0.08 8.92 0.05C8.84 0.02 8.76 0 8.67 0L0.67 0C0.62 0 0.58 0 0.54 0.01C0.49 0.02 0.45 0.03 0.41 0.05C0.37 0.07 0.33 0.09 0.3 0.11ZM4.67 3.72L2.28 1.33L7.06 1.33L4.67 3.72Z" /></g></g></svg>