<svg xmlns="http://www.w3.org/2000/svg" xmlns:xlink="http://www.w3.org/1999/xlink" width="20" height="20" viewBox="0 0 20 20" fill="none">
<path   fill="currentColor"  d="M11 10.165L16 10.165C17.5657 10.165 18.835 11.4343 18.835 13L18.835 18.835L13 18.835C11.4343 18.835 10.165 17.5657 10.165 16L10.165 10.165L11 10.165ZM11 11.835L11 11L11.835 11L11.835 16C11.835 16.6434 12.3566 17.165 13 17.165L18 17.165L18 18L17.165 18L17.165 13C17.165 12.3566 16.6434 11.835 16 11.835L11 11.835Z">
</path>
<path   fill="currentColor"  d="M4 10.165L9.835 10.165L9.835 16C9.835 17.5657 8.56573 18.835 7 18.835L1.165 18.835L1.165 13C1.165 11.4343 2.43427 10.165 4 10.165ZM4 11.835C3.35659 11.835 2.835 12.3566 2.835 13L2.835 18L2 18L2 17.165L7 17.165C7.64341 17.165 8.165 16.6434 8.165 16L8.165 11L9 11L9 11.835L4 11.835Z">
</path>
<path   fill="currentColor"  d="M13 1.165L18.835 1.165L18.835 7C18.835 8.56573 17.5657 9.835 16 9.835L10.165 9.835L10.165 4C10.165 2.43427 11.4343 1.165 13 1.165ZM13 2.835C12.3566 2.835 11.835 3.35659 11.835 4L11.835 9L11 9L11 8.165L16 8.165C16.6434 8.165 17.165 7.64341 17.165 7L17.165 2L18 2L18 2.835L13 2.835Z">
</path>
<path   fill="currentColor"  d="M2 1.165L7 1.165C8.56573 1.165 9.835 2.43427 9.835 4L9.835 9.835L4 9.835C2.43427 9.835 1.165 8.56573 1.165 7L1.165 1.165L2 1.165ZM2 2.835L2 2L2.835 2L2.835 7C2.835 7.64341 3.35659 8.165 4 8.165L9 8.165L9 9L8.165 9L8.165 4C8.165 3.35659 7.64341 2.835 7 2.835L2 2.835Z">
</path>
</svg>
