<svg xmlns="http://www.w3.org/2000/svg" xmlns:xlink="http://www.w3.org/1999/xlink" width="20" height="20" viewBox="0 0 20 20" fill="none">
<path d="M8.56084 5.53975L5.53975 8.56084C5.3271 8.77349 5.31097 9.11297 5.50251 9.34482L13.7127 19.2835C13.9318 19.5487 14.3317 19.5677 14.5749 19.3245L19.3245 14.5749C19.5677 14.3317 19.5487 13.9318 19.2835 13.7127L9.34482 5.50251C9.11296 5.31097 8.77349 5.3271 8.56084 5.53975ZM11.2396 8.51791L8.51783 11.2397C8.48756 11.2699 8.48515 11.3182 8.51226 11.3514L9.04259 11.9995C9.07381 12.0377 9.13115 12.0405 9.16601 12.0057L12.0056 9.16609C12.0405 9.13123 12.0376 9.07389 11.9994 9.04267L11.3513 8.51234C11.3181 8.48523 11.2699 8.48764 11.2396 8.51791Z" fill-rule="evenodd"  fill="url(#linear_fill_75_18)" >
</path>
<path d="M14.5 2C14.5 2 14.434 3.31598 13.875 3.875C13.316 4.43402 12 4.5 12 4.5C12 4.5 13.316 4.56598 13.875 5.125C14.434 5.68402 14.5 7 14.5 7C14.5 7 14.566 5.68402 15.125 5.125C15.684 4.56598 17 4.5 17 4.5C17 4.5 15.684 4.43402 15.125 3.875C14.566 3.31598 14.5 2 14.5 2Z"   fill="#B2BBD6" >
</path>
<path d="M3.5 10C3.5 10 3.43402 11.316 2.875 11.875C2.31598 12.434 1 12.5 1 12.5C1 12.5 2.31598 12.566 2.875 13.125C3.43402 13.684 3.5 15 3.5 15C3.5 15 3.56598 13.684 4.125 13.125C4.68402 12.566 6 12.5 6 12.5C6 12.5 4.68402 12.434 4.125 11.875C3.56598 11.316 3.5 10 3.5 10Z"   fill="#B2BBD6" >
</path>
<path d="M4 1C4 1 3.92082 2.57918 3.25 3.25C2.57918 3.92082 1 4 1 4C1 4 2.57918 4.07918 3.25 4.75C3.92082 5.42082 4 7 4 7C4 7 4.07918 5.42082 4.75 4.75C5.42082 4.07918 7 4 7 4C7 4 5.42082 3.92082 4.75 3.25C4.07918 2.57918 4 1 4 1Z"   fill="#376AF5" >
</path>
<defs>
<linearGradient id="linear_fill_75_18" x1="12.43212890625" y1="5.368896484375" x2="12.43212890625" y2="19.495330810546875" gradientUnits="userSpaceOnUse">
<stop offset="0" stop-color="#376AF5"  />
<stop offset="0.999" stop-color="#45AEFF"  />
</linearGradient>
</defs>
</svg>
