<svg xmlns="http://www.w3.org/2000/svg" xmlns:xlink="http://www.w3.org/1999/xlink" width="16" height="16" viewBox="0 0 16 16" fill="none"><defs><rect id="path_0" x="0" y="0" width="16" height="16" /></defs><g opacity="1" transform="translate(0 0)  rotate(0 8 8)"><mask id="bg-mask-0" fill="white"><use xlink:href="#path_0"></use></mask><g mask="url(#bg-mask-0)" ><path id="路径 1 (轮廓)" fill-rule="evenodd" style="fill:currentColor" transform="translate(2.333332999999584 2.666666333333353)  rotate(0 5.6666835 6.3316835)" opacity="1" d="M10.67 12.66C10.71 12.66 10.75 12.66 10.8 12.65C10.84 12.64 10.88 12.63 10.92 12.61C10.96 12.6 11 12.58 11.04 12.55C11.07 12.53 11.11 12.5 11.14 12.47C11.17 12.44 11.2 12.4 11.22 12.37C11.25 12.33 11.27 12.29 11.28 12.25C11.3 12.21 11.31 12.17 11.32 12.13C11.33 12.08 11.33 12.04 11.33 12L11.33 0.67C11.33 0.62 11.33 0.58 11.32 0.54C11.31 0.49 11.3 0.45 11.28 0.41C11.27 0.37 11.25 0.33 11.22 0.3C11.2 0.26 11.17 0.23 11.14 0.2C11.11 0.16 11.07 0.14 11.04 0.11L10.92 0.05C10.88 0.03 10.84 0.02 10.8 0.01C10.75 0 10.71 0 10.67 0L0.67 0C0.62 0 0.58 0 0.54 0.01C0.49 0.02 0.45 0.03 0.41 0.05C0.37 0.07 0.33 0.09 0.3 0.11C0.26 0.14 0.23 0.16 0.2 0.2C0.16 0.23 0.14 0.26 0.11 0.3C0.09 0.33 0.07 0.37 0.05 0.41C0.03 0.45 0.02 0.49 0.01 0.54C0 0.58 0 0.62 0 0.67L0 12C0 12.04 0 12.08 0.01 12.13C0.02 12.17 0.03 12.21 0.05 12.25L0.11 12.37C0.14 12.4 0.16 12.44 0.2 12.47C0.23 12.5 0.26 12.53 0.3 12.55C0.33 12.58 0.37 12.6 0.41 12.61C0.45 12.63 0.49 12.64 0.54 12.65C0.58 12.66 0.62 12.66 0.67 12.66L10.67 12.66ZM10 1.33L10 11.33L1.33 11.33L1.33 1.33L10 1.33Z" /><path id="路径 2 (轮廓)" fill-rule="evenodd" style="fill:currentColor" transform="translate(5.999999666666554 5.9999996666666675)  rotate(0 0.666667 2.8316685)" opacity="1" d="M1.32,0.54C1.31,0.49 1.3,0.45 1.28,0.41C1.27,0.37 1.25,0.33 1.22,0.3C1.2,0.26 1.17,0.23 1.14,0.2C1.11,0.16 1.07,0.14 1.04,0.11C1,0.09 0.96,0.07 0.92,0.05C0.88,0.03 0.84,0.02 0.8,0.01C0.75,0 0.71,0 0.67,0C0.62,0 0.58,0 0.54,0.01C0.49,0.02 0.45,0.03 0.41,0.05C0.37,0.07 0.33,0.09 0.3,0.11C0.26,0.14 0.23,0.16 0.2,0.2C0.16,0.23 0.14,0.26 0.11,0.3C0.09,0.33 0.07,0.37 0.05,0.41C0.03,0.45 0.02,0.49 0.01,0.54C0,0.58 0,0.62 0,0.67L0,5C0,5.04 0,5.08 0.01,5.13C0.02,5.17 0.03,5.21 0.05,5.25C0.07,5.29 0.09,5.33 0.11,5.37C0.14,5.4 0.16,5.44 0.2,5.47C0.23,5.5 0.26,5.53 0.3,5.55C0.33,5.58 0.37,5.6 0.41,5.61C0.45,5.63 0.49,5.64 0.54,5.65C0.58,5.66 0.62,5.66 0.67,5.66C0.71,5.66 0.75,5.66 0.8,5.65C0.84,5.64 0.88,5.63 0.92,5.61C0.96,5.6 1,5.58 1.04,5.55C1.07,5.53 1.11,5.5 1.14,5.47C1.17,5.44 1.2,5.4 1.22,5.37C1.25,5.33 1.27,5.29 1.28,5.25C1.3,5.21 1.31,5.17 1.32,5.13C1.33,5.08 1.33,5.04 1.33,5L1.33,0.67C1.33,0.62 1.33,0.58 1.32,0.54Z " /><path id="路径 3 (轮廓)" fill-rule="evenodd" style="fill:currentColor" transform="translate(8.666666333332614 5.9999996666666675)  rotate(0 0.666667 2.8316685)" opacity="1" d="M1.32,0.54C1.31,0.49 1.3,0.45 1.28,0.41C1.27,0.37 1.25,0.33 1.22,0.3C1.2,0.26 1.17,0.23 1.14,0.2C1.11,0.16 1.07,0.14 1.04,0.11C1,0.09 0.96,0.07 0.92,0.05C0.88,0.03 0.84,0.02 0.8,0.01C0.75,0 0.71,0 0.67,0C0.62,0 0.58,0 0.54,0.01C0.49,0.02 0.45,0.03 0.41,0.05C0.37,0.07 0.33,0.09 0.3,0.11C0.26,0.14 0.23,0.16 0.2,0.2C0.16,0.23 0.14,0.26 0.11,0.3C0.09,0.33 0.07,0.37 0.05,0.41C0.03,0.45 0.02,0.49 0.01,0.54C0,0.58 0,0.62 0,0.67L0,5C0,5.04 0,5.08 0.01,5.13C0.02,5.17 0.03,5.21 0.05,5.25C0.07,5.29 0.09,5.33 0.11,5.37C0.14,5.4 0.16,5.44 0.2,5.47C0.23,5.5 0.26,5.53 0.3,5.55C0.33,5.58 0.37,5.6 0.41,5.61C0.45,5.63 0.49,5.64 0.54,5.65C0.58,5.66 0.62,5.66 0.67,5.66C0.71,5.66 0.75,5.66 0.8,5.65C0.84,5.64 0.88,5.63 0.92,5.61C0.96,5.6 1,5.58 1.04,5.55C1.07,5.53 1.11,5.5 1.14,5.47C1.17,5.44 1.2,5.4 1.22,5.37C1.25,5.33 1.27,5.29 1.28,5.25C1.3,5.21 1.31,5.17 1.32,5.13C1.33,5.08 1.33,5.04 1.33,5L1.33,0.67C1.33,0.62 1.33,0.58 1.32,0.54Z " /><path id="路径 4 (轮廓)" fill-rule="evenodd" style="fill:currentColor" transform="translate(0.6666663333326142 2.666666333333353)  rotate(0 7.3316835000000005 0.666667)" opacity="1" d="M0,0.67C0,0.71 0,0.75 0.01,0.8C0.02,0.84 0.03,0.88 0.05,0.92C0.07,0.96 0.09,1 0.11,1.04C0.14,1.07 0.16,1.11 0.2,1.14C0.23,1.17 0.26,1.2 0.3,1.22C0.33,1.25 0.37,1.27 0.41,1.28C0.45,1.3 0.49,1.31 0.54,1.32C0.58,1.33 0.62,1.33 0.67,1.33L14,1.33C14.04,1.33 14.08,1.33 14.13,1.32C14.17,1.31 14.21,1.3 14.25,1.28C14.29,1.27 14.33,1.25 14.37,1.22C14.4,1.2 14.44,1.17 14.47,1.14C14.5,1.11 14.53,1.07 14.55,1.04C14.58,1 14.6,0.96 14.61,0.92C14.63,0.88 14.64,0.84 14.65,0.8C14.66,0.75 14.66,0.71 14.66,0.67C14.66,0.62 14.66,0.58 14.65,0.54C14.64,0.49 14.63,0.45 14.61,0.41C14.6,0.37 14.58,0.33 14.55,0.3C14.53,0.26 14.5,0.23 14.47,0.2C14.44,0.16 14.4,0.14 14.37,0.11C14.33,0.09 14.29,0.07 14.25,0.05C14.21,0.03 14.17,0.02 14.13,0.01C14.08,0 14.04,0 14,0L0.67,0C0.62,0 0.58,0 0.54,0.01C0.49,0.02 0.45,0.03 0.41,0.05C0.37,0.07 0.33,0.09 0.3,0.11C0.26,0.14 0.23,0.16 0.2,0.2C0.16,0.23 0.14,0.26 0.11,0.3C0.09,0.33 0.07,0.37 0.05,0.41C0.03,0.45 0.02,0.49 0.01,0.54C0,0.58 0,0.62 0,0.67Z " /><path id="路径 5 (轮廓)" fill-rule="evenodd" style="fill:currentColor" transform="translate(4.6666593178706535 0.6666663333333531)  rotate(0 3.3316720077311577 1.6666684999999999)" opacity="1" d="M1.77 0C1.71 0 1.65 0.01 1.59 0.02C1.53 0.04 1.48 0.06 1.43 0.09C1.38 0.12 1.33 0.16 1.29 0.2C1.25 0.25 1.21 0.29 1.18 0.35L0.08 2.35C0.06 2.38 0.04 2.42 0.03 2.47L0 2.59L0 2.72C0.01 2.77 0.01 2.81 0.03 2.85C0.04 2.89 0.05 2.94 0.08 2.97C0.1 3.01 0.12 3.05 0.15 3.08C0.17 3.12 0.2 3.15 0.24 3.18C0.27 3.21 0.31 3.23 0.35 3.25C0.45 3.31 0.55 3.33 0.67 3.33L6 3.33C6.04 3.33 6.08 3.33 6.13 3.32C6.17 3.31 6.21 3.3 6.25 3.28Q6.31 3.265 6.37 3.22C6.4 3.2 6.44 3.17 6.47 3.14C6.5 3.11 6.53 3.07 6.55 3.04Q6.595 2.98 6.61 2.92C6.63 2.88 6.64 2.84 6.65 2.8C6.66 2.75 6.66 2.71 6.66 2.67C6.66 2.56 6.64 2.45 6.58 2.35L5.51 0.35C5.49 0.3 5.45 0.25 5.41 0.21C5.37 0.16 5.32 0.13 5.27 0.09C5.22 0.06 5.16 0.04 5.1 0.02C5.05 0.01 4.99 0 4.93 0L1.77 0ZM2.16 1.33L4.53 1.33L4.88 2L1.79 2L2.16 1.33Z" /></g></g></svg>