<svg xmlns="http://www.w3.org/2000/svg" xmlns:xlink="http://www.w3.org/1999/xlink" width="20" height="20" viewBox="0 0 20 20" fill="none">
<path   fill="rgba(178, 187, 214, 1)"  d="M3.835 2L3.835 18L3 18L3.835 18C3.835 17.815 3.68502 17.665 3.5 17.665L3.5 18.5L3.5 17.665L16.5 17.665L16.5 18.5L16.5 17.665C16.315 17.665 16.165 17.815 16.165 18L17 18L16.165 18L16.165 10L17 10L16.165 10L16.165 5.70711L17 5.70711L16.165 5.70711L17 5.70711L16.165 5.70711Q16.165 5.84587 16.2631 5.94399L16.8536 5.35355L16.2631 5.94399L12.556 2.23688L12.556 2.23688L12.556 2.23688Q12.6541 2.335 12.7929 2.335L12.7929 1.5L12.7929 2.335L10 2.335L10 2.335L3.5 2.335L3.5 1.5L3.5 2.335C3.68502 2.335 3.835 2.18502 3.835 2L3.835 2ZM2.165 2L3 2L2.165 2C2.165 1.2627 2.7627 0.665 3.5 0.665L3.5 0.665L10 0.665L10 1.5L10 0.665L12.7929 0.665L12.7929 0.665Q13.3459 0.665 13.7369 1.05601L13.1464 1.64645L13.7369 1.05601L13.1464 1.64645L13.7369 1.05601L17.444 4.76312L17.444 4.76312Q17.835 5.15413 17.835 5.70711L17.835 5.70711L17.835 5.70711L17.835 10L17.835 10L17.835 18L17.835 18C17.835 18.7373 17.2373 19.335 16.5 19.335L16.5 19.335L3.5 19.335L3.5 19.335C2.7627 19.335 2.165 18.7373 2.165 18L2.165 18L2.165 2Z">
</path>
<path   fill="rgba(178, 187, 214, 1)"  d="M13.835 2.70711L13.835 5L13 5L13.835 5C13.835 4.81498 13.685 4.665 13.5 4.665L13.5 5.5L13.5 4.665L15.7929 4.665L15.7929 5.5L15.7929 4.665C15.4944 4.665 15.345 5.02584 15.556 5.23688L16.1464 4.64645L15.556 5.23688L13.2631 2.94399L13.8536 2.35355L13.2631 2.94399C13.4742 3.15503 13.835 3.00556 13.835 2.70711L13.835 2.70711ZM12.165 2.70711L13 2.70711L12.165 2.70711C12.165 1.51775 13.603 0.922116 14.444 1.76312L14.444 1.76312L16.7369 4.05601L16.7369 4.05601C17.5779 4.89702 16.9823 6.335 15.7929 6.335L15.7929 6.335L13.5 6.335L13.5 6.335C12.7627 6.335 12.165 5.7373 12.165 5L12.165 5L12.165 2.70711Z">
</path>
<path d="M6.5 7.5L10.5 7.5C10.7761 7.5 11 7.72386 11 8L11 9C11 9.27614 10.7761 9.5 10.5 9.5L6.5 9.5C6.22386 9.5 6 9.27614 6 9L6 8C6 7.72386 6.22386 7.5 6.5 7.5ZM6.5 10.5L13.5 10.5C13.7761 10.5 14 10.7239 14 11L14 12C14 12.2761 13.7761 12.5 13.5 12.5L6.5 12.5C6.22386 12.5 6 12.2761 6 12L6 11C6 10.7239 6.22386 10.5 6.5 10.5ZM13.5 13.5L6.5 13.5C6.22386 13.5 6 13.7239 6 14L6 15C6 15.2761 6.22386 15.5 6.5 15.5L13.5 15.5C13.7761 15.5 14 15.2761 14 15L14 14C14 13.7239 13.7761 13.5 13.5 13.5Z" fill-rule="evenodd"  fill="url(#linear_fill_160_19)" >
</path>
<defs>
<linearGradient id="linear_fill_160_19" x1="10" y1="7.5" x2="10" y2="15.5" gradientUnits="userSpaceOnUse">
<stop offset="0" stop-color="#376CF5"  />
<stop offset="1" stop-color="#44ABFF"  />
</linearGradient>
</defs>
</svg>
