<svg xmlns="http://www.w3.org/2000/svg" xmlns:xlink="http://www.w3.org/1999/xlink" width="16" height="16" viewBox="0 0 16 16" fill="none">
<path   fill="rgba(70, 90, 145, 1)"  d="M11 7.665L5 7.665L4.335 7L4.335 4L4.335 4C4.335 1.97588 5.97588 0.335 8 0.335L8 0.335L8 0.335Q8.7452 0.335 9.42679 0.623287Q10.0846 0.901526 10.5915 1.40845Q11.0985 1.91538 11.3767 2.57321Q11.665 3.2548 11.665 4L11 4L11.665 4L11.665 4.75L11 4.75L11.665 4.75L11.665 5.5L10.335 5.5L10.335 4.75L10.335 4.75L10.335 4L10.335 4Q10.335 3.5245 10.1518 3.09132Q9.97459 2.6724 9.65109 2.34891Q9.3276 2.02541 8.90868 1.84822Q8.4755 1.665 8 1.665L8 1L8 1.665L8 1L8 1.665C6.71042 1.665 5.665 2.71042 5.665 4L5 4L5.665 4L5.665 7L5 7L5 6.335L11 6.335L11 7.665ZM4.335 7L5 7L5 7.665L4.335 7ZM11 7.665C10.6327 7.665 10.335 7.36727 10.335 7C10.335 6.63273 10.6327 6.335 11 6.335C11.3673 6.335 11.665 6.63273 11.665 7C11.665 7.36727 11.3673 7.665 11 7.665Z">
</path>
<rect x="3" y="7" width="10" height="8" stroke="rgba(70, 90, 145, 1)" stroke-width="1.33"   >
</rect>
<path    stroke="rgba(12, 99, 238, 1)" stroke-width="1.33"    d="M8 9.5L8 12.5">
</path>
</svg>
