<svg xmlns="http://www.w3.org/2000/svg" xmlns:xlink="http://www.w3.org/1999/xlink" width="20" height="20" viewBox="0 0 20 20" fill="none">
<path d="M3.68448 13.7297L5.99994 13.7297C6.4611 13.7297 6.83494 13.3559 6.83494 12.8947C6.83494 12.4335 6.4611 12.0597 5.99994 12.0597L3.34152 12.0597C3.0432 12.0597 2.77869 12.1543 2.54799 12.3434C2.31728 12.5325 2.17267 12.7734 2.11417 13.0659L1.28084 17.2326C1.12593 18.0071 1.71834 18.7297 2.5082 18.7297L17.4916 18.7297C18.2815 18.7297 18.8739 18.0071 18.719 17.2326L17.8857 13.0659C17.8272 12.7734 17.6826 12.5325 17.4519 12.3434C17.2212 12.1543 16.9567 12.0597 16.6583 12.0597L13.9999 12.0597C13.5387 12.0597 13.1649 12.4335 13.1649 12.8947C13.1649 13.3559 13.5387 13.7297 13.9999 13.7297L16.3154 13.7297L16.9814 17.0597L3.01848 17.0597L3.68448 13.7297Z" fill-rule="evenodd"  fill="#B2BBD6" >
</path>
<path d="M6.00007 2.60011L6.00002 2.60015C3.79089 4.80928 3.79089 8.39099 6.00002 10.6001L9.99992 14.6L13.9999 10.6C16.2091 8.39088 16.2091 4.80921 13.9999 2.60011C11.7908 0.391003 8.20917 0.391003 6.00007 2.60011ZM10 9.00004C11.3808 9.00004 12.5 7.88075 12.5 6.50004C12.5 5.11933 11.3808 4.00004 10 4.00004C8.61933 4.00004 7.50004 5.11933 7.50004 6.50004C7.50004 7.88075 8.61933 9.00004 10 9.00004Z" fill-rule="evenodd"  fill="url(#linear_fill_75_14)" >
</path>
<defs>
<linearGradient id="linear_fill_75_14" x1="13.545654296875" y1="3.273345947265625" x2="4.48046875" y2="14.216079711914062" gradientUnits="userSpaceOnUse">
<stop offset="0" stop-color="#376AF5"  />
<stop offset="1" stop-color="#45AEFF"  />
</linearGradient>
</defs>
</svg>
