<svg xmlns="http://www.w3.org/2000/svg" xmlns:xlink="http://www.w3.org/1999/xlink" width="20.0418701171875" height="20" viewBox="0 0 20.0418701171875 20" fill="none">
<path     fill="#B2BBD6"  d="M0.48187 2L3.54187 2L4.36187 2L2.54187 5.5L0.48187 5.5C0.240246 5.5 0.0418701 5.30162 0.0418701 5.06L0.0418701 2.44C0.0418701 2.19838 0.240246 2 0.48187 2ZM19.6019 2C19.8435 2 20.0419 2.19838 20.0419 2.44L20.0419 5.06C20.0419 5.30162 19.8435 5.5 19.6019 5.5L15.8719 5.5L17.7019 2L19.6019 2ZM10.2119 2L11.8719 2L10.0419 5.5L8.38187 5.5L10.2119 2ZM5.21187 2L6.88187 2L5.04187 5.5L3.36187 5.5L5.21187 2ZM15.2119 2L16.8719 2L15.0519 5.5L13.3719 5.5L15.2119 2ZM7.71187 2L9.37187 2L7.54187 5.5L5.88187 5.5L7.71187 2ZM12.7119 2L14.3719 2L12.5419 5.5L10.8719 5.5L12.7119 2Z">
</path>
<path d="M19.5419 6.5L0.54187 6.5C0.265728 6.5 0.0418701 6.72386 0.0418701 7L0.0418701 17.5C0.0418701 17.7761 0.265728 18 0.54187 18L19.5419 18C19.818 18 20.0419 17.7761 20.0419 17.5L20.0419 7C20.0419 6.72386 19.818 6.5 19.5419 6.5ZM8.62082 15.067L12.75 12.683C13.0833 12.4906 13.0833 12.0094 12.75 11.817L8.62082 9.43301C8.28749 9.24056 7.87082 9.48113 7.87082 9.86603L7.87082 14.634C7.87082 15.0189 8.28749 15.2594 8.62082 15.067Z" fill-rule="evenodd"  fill="url(#linear_fill_75_17)" >
</path>
<defs>
<linearGradient id="linear_fill_75_17" x1="10.0418701171875" y1="6.5" x2="10.0418701171875" y2="18" gradientUnits="userSpaceOnUse">
<stop offset="0" stop-color="#376AF5"  />
<stop offset="0.9976" stop-color="#45AEFF"  />
</linearGradient>
</defs>
</svg>
