<svg xmlns="http://www.w3.org/2000/svg" xmlns:xlink="http://www.w3.org/1999/xlink" width="16" height="16" viewBox="0 0 16 16" fill="none"><defs><rect id="path_0" x="0" y="0" width="16" height="16" /></defs><g opacity="1" transform="translate(0 0)  rotate(0 8 8)"><mask id="bg-mask-0" fill="white"><use xlink:href="#path_0"></use></mask><g mask="url(#bg-mask-0)" ><path id="路径 1 (轮廓)" fill-rule="evenodd" style="fill:currentColor" transform="translate(0.6666673333329527 0.6667473333316138)  rotate(0 7.331683000000869 7.331683000000869)" opacity="1" d="M12.52 12.52C11.84 13.19 11.07 13.72 10.19 14.09Q8.825 14.66 7.34 14.66C6.34 14.66 5.39 14.47 4.48 14.09C3.6 13.72 2.82 13.19 2.15 12.52C1.47 11.84 0.95 11.07 0.58 10.19C0.19 9.28 0 8.33 0 7.34C0 6.34 0.19 5.39 0.58 4.48C0.95 3.6 1.47 2.82 2.15 2.15C2.82 1.47 3.6 0.95 4.48 0.58C5.39 0.19 6.34 0 7.34 0C8.33 0 9.28 0.19 10.19 0.58C11.07 0.95 11.84 1.47 12.52 2.15C13.19 2.82 13.72 3.6 14.09 4.48C14.47 5.39 14.66 6.34 14.66 7.34Q14.66 8.825 14.09 10.19C13.72 11.07 13.19 11.84 12.52 12.52ZM7.34 1.33C6.52 1.33 5.74 1.49 5 1.8C4.28 2.11 3.64 2.54 3.09 3.09C2.54 3.64 2.11 4.28 1.8 5C1.49 5.74 1.33 6.52 1.33 7.34C1.33 8.15 1.49 8.93 1.8 9.67C2.11 10.39 2.54 11.02 3.09 11.58C3.64 12.13 4.28 12.56 5 12.86C5.74 13.17 6.52 13.33 7.34 13.33C8.15 13.33 8.93 13.17 9.67 12.86C10.39 12.56 11.02 12.13 11.58 11.58C12.13 11.02 12.56 10.39 12.86 9.67C13.17 8.93 13.33 8.15 13.33 7.34C13.33 6.52 13.17 5.74 12.86 5C12.56 4.28 12.13 3.64 11.58 3.09C11.02 2.54 10.39 2.11 9.67 1.8C8.93 1.49 8.15 1.33 7.34 1.33Z" /><path id="路径 2 (轮廓)" fill-rule="evenodd" style="fill:currentColor" transform="translate(1.3333327116015425 0.9116957482908674)  rotate(0 5.026693156638822 5.173315282163964)" opacity="1" d="M8.95,0.47C8.94,0.43 8.92,0.39 8.9,0.35C8.88,0.31 8.86,0.28 8.83,0.24C8.8,0.21 8.77,0.18 8.74,0.15C8.7,0.12 8.67,0.1 8.63,0.08C8.59,0.06 8.55,0.04 8.51,0.03C8.47,0.02 8.42,0.01 8.38,0C8.34,0 8.29,0 8.25,0C8.21,0.01 8.16,0.02 8.12,0.03C7.74,0.15 7.55,0.46 7.55,0.98C7.55,1.21 7.59,1.54 7.66,1.95C7.72,2.3 7.86,2.59 8.07,2.82C8.19,2.96 8.37,3.09 8.59,3.22C8.65,3.26 8.7,3.29 8.72,3.3C8.72,3.35 8.72,3.41 8.71,3.48C8.7,3.54 8.69,3.58 8.68,3.61C8.63,3.62 8.53,3.64 8.37,3.65C8.09,3.67 7.88,3.7 7.72,3.74C7.41,3.82 7.14,3.95 6.91,4.15C6.61,4.41 6.44,4.77 6.4,5.22C6.38,5.43 6.4,5.74 6.45,6.15C6.49,6.52 6.51,6.77 6.49,6.89C6.48,6.96 6.46,7 6.44,7.04C6.41,7.07 6.38,7.11 6.32,7.14C6.22,7.19 6.08,7.2 5.91,7.14C5.75,7.08 5.49,6.94 5.13,6.7C4.77,6.47 4.49,6.32 4.31,6.24C3.87,6.07 3.48,6.07 3.13,6.26C2.77,6.45 2.52,6.78 2.39,7.23C2.33,7.44 2.28,7.76 2.24,8.18C2.2,8.63 2.15,8.88 2.11,8.93C2.04,8.98 1.94,9.01 1.8,9.01C1.57,9.01 1.27,8.94 0.91,8.8C0.87,8.78 0.83,8.77 0.79,8.76C0.74,8.75 0.7,8.75 0.66,8.75C0.61,8.75 0.57,8.76 0.53,8.76C0.48,8.77 0.44,8.79 0.4,8.8C0.36,8.82 0.32,8.84 0.29,8.87C0.25,8.89 0.22,8.92 0.19,8.95C0.16,8.98 0.13,9.02 0.11,9.05C0.08,9.09 0.06,9.13 0.05,9.17C0.03,9.21 0.02,9.25 0.01,9.3C0,9.34 0,9.38 0,9.43C0,9.47 0.01,9.51 0.01,9.56C0.02,9.6 0.04,9.64 0.05,9.68C0.07,9.72 0.09,9.76 0.12,9.79C0.14,9.83 0.17,9.86 0.2,9.89C0.23,9.93 0.27,9.95 0.3,9.98C0.34,10 0.38,10.02 0.42,10.04C1.56,10.49 2.42,10.45 3.01,9.91C3.23,9.71 3.38,9.43 3.46,9.07C3.5,8.9 3.54,8.65 3.57,8.3C3.61,7.82 3.67,7.54 3.74,7.45C3.76,7.46 3.78,7.47 3.81,7.48C3.92,7.52 4.12,7.64 4.41,7.82C4.62,7.96 4.78,8.06 4.89,8.13C5.1,8.24 5.3,8.34 5.48,8.4C6.02,8.59 6.52,8.55 6.97,8.3C7.44,8.04 7.71,7.65 7.8,7.11C7.83,6.93 7.84,6.73 7.83,6.51C7.82,6.39 7.8,6.21 7.77,5.98C7.73,5.66 7.72,5.45 7.73,5.33C7.73,5.24 7.75,5.19 7.78,5.16C7.85,5.1 7.94,5.06 8.05,5.03C8.13,5.01 8.27,4.99 8.46,4.98C8.63,4.96 8.77,4.95 8.86,4.94C9.05,4.9 9.21,4.85 9.35,4.77C9.72,4.56 9.95,4.2 10.03,3.69C10.09,3.25 10.04,2.88 9.86,2.59C9.78,2.46 9.67,2.35 9.54,2.25C9.48,2.2 9.39,2.14 9.27,2.08C9.16,2.01 9.09,1.96 9.06,1.93C9.02,1.88 8.99,1.81 8.97,1.71C8.92,1.4 8.89,1.17 8.89,1.01C8.89,1 8.9,0.99 8.91,0.98C8.95,0.9 8.97,0.82 8.98,0.73C8.99,0.64 8.98,0.56 8.95,0.47Z " /><path id="路径 3 (轮廓)" fill-rule="evenodd" style="fill:currentColor" transform="translate(8.271779989689094 8.71346035563397)  rotate(0 3.183224385071219 3.2035367739620275)" opacity="1" d="M2.23,2.9C2.28,2.77 2.31,2.63 2.32,2.47C2.32,2.39 2.32,2.28 2.32,2.15C2.31,1.95 2.32,1.82 2.35,1.75C2.4,1.64 2.53,1.52 2.76,1.4C2.96,1.3 3.24,1.32 3.58,1.47C4.05,1.68 4.6,2.1 5.23,2.72C5.29,2.79 5.37,2.83 5.45,2.87C5.53,2.9 5.61,2.92 5.7,2.92C5.79,2.92 5.88,2.9 5.96,2.87C6.04,2.83 6.11,2.78 6.17,2.72C6.2,2.69 6.23,2.66 6.26,2.62C6.28,2.58 6.3,2.54 6.32,2.5C6.33,2.46 6.35,2.42 6.35,2.38C6.36,2.34 6.37,2.29 6.37,2.25C6.37,2.2 6.36,2.16 6.35,2.12C6.34,2.08 6.33,2.03 6.31,1.99C6.3,1.95 6.28,1.91 6.25,1.88C6.23,1.84 6.2,1.81 6.17,1.78C5.42,1.03 4.74,0.53 4.12,0.25C3.39,-0.07 2.73,-0.08 2.14,0.22C1.63,0.49 1.29,0.83 1.12,1.23C1.05,1.4 1,1.59 0.99,1.79C0.98,1.89 0.98,2.02 0.99,2.2C0.99,2.34 0.99,2.42 0.99,2.44C0.97,2.48 0.91,2.55 0.81,2.64C0.66,2.78 0.53,2.92 0.45,3.04C0.3,3.24 0.18,3.47 0.1,3.74C-0.17,4.55 0.11,5.37 0.92,6.2C0.98,6.27 1.05,6.32 1.13,6.35C1.22,6.39 1.3,6.41 1.39,6.41C1.48,6.41 1.56,6.39 1.65,6.36C1.73,6.33 1.8,6.28 1.86,6.22C1.9,6.19 1.92,6.16 1.95,6.12C1.97,6.08 1.99,6.05 2.01,6.01C2.03,5.97 2.04,5.92 2.05,5.88C2.06,5.84 2.07,5.79 2.07,5.75C2.07,5.71 2.06,5.66 2.06,5.62C2.05,5.58 2.04,5.54 2.02,5.5C2,5.45 1.98,5.42 1.96,5.38C1.94,5.34 1.91,5.31 1.88,5.28C1.44,4.82 1.27,4.45 1.36,4.16C1.41,4.02 1.46,3.91 1.52,3.82C1.56,3.78 1.62,3.71 1.71,3.63C1.83,3.52 1.91,3.43 1.97,3.36C2.08,3.22 2.17,3.07 2.23,2.9Z " /></g></g></svg>