<?xml version="1.0" standalone="no"?><!DOCTYPE svg PUBLIC "-//W3C//DTD SVG 1.1//EN" "http://www.w3.org/Graphics/SVG/1.1/DTD/svg11.dtd"><svg t="1745807246578" class="icon" viewBox="0 0 1024 1024" version="1.1" xmlns="http://www.w3.org/2000/svg" p-id="22478" xmlns:xlink="http://www.w3.org/1999/xlink" width="24" height="24"><path d="M704 166.4l-0.032 57.6H793.6a38.4 38.4 0 0 1 38.4 38.4v595.2a38.4 38.4 0 0 1-38.4 38.4H230.4a38.4 38.4 0 0 1-38.4-38.4V262.4a38.4 38.4 0 0 1 38.4-38.4h89.568l0.016-57.6A38.432 38.432 0 0 1 358.4 128h307.2c21.2 0 38.4 17.184 38.4 38.4zM665.6 352H358.4a38.464 38.464 0 0 1-38.416-38.4l-0.016-25.6H268.8a12.8 12.8 0 0 0-12.8 12.8v518.4a12.8 12.8 0 0 0 12.8 12.8h486.4a12.8 12.8 0 0 0 12.8-12.8V300.8a12.8 12.8 0 0 0-12.8-12.8h-51.232v25.6A38.368 38.368 0 0 1 665.6 352z m-38.432-160.032h-230.4a12.8 12.8 0 0 0-12.8 12.8v70.4a12.8 12.8 0 0 0 12.8 12.8h230.4a12.8 12.8 0 0 0 12.8-12.8v-70.4a12.8 12.8 0 0 0-12.8-12.8z" fill="currentColor" p-id="22479"></path></svg>