<svg xmlns="http://www.w3.org/2000/svg" xmlns:xlink="http://www.w3.org/1999/xlink" width="20" height="20" viewBox="0 0 20 20" fill="none">
<path    stroke="currentColor" stroke-width="1.67"    d="M15.3019 7.29631L18.3 4.29818L15.3019 1.30005">
</path>
<path   fill="currentColor"  d="M13.0333 17.465L8.29993 17.465L8.29993 18.3L8.29993 17.465C4.89509 17.465 2.13493 14.7049 2.13493 11.3L1.29993 11.3L2.13493 11.3C2.13493 7.89521 4.89509 5.13505 8.29993 5.13505L8.29993 4.30005L8.29993 5.13505L17.2999 5.13505L17.2999 3.46505L8.29993 3.46505L8.29993 3.46505C3.97278 3.46505 0.464928 6.9729 0.464928 11.3L0.464928 11.3C0.464928 15.6272 3.97278 19.135 8.29993 19.135L8.29993 19.135L13.0333 19.135L13.0333 17.465Z">
</path>
</svg>
