<?xml version="1.0" standalone="no"?><!DOCTYPE svg PUBLIC "-//W3C//DTD SVG 1.1//EN" "http://www.w3.org/Graphics/SVG/1.1/DTD/svg11.dtd"><svg t="1745807513436" class="icon" viewBox="0 0 1024 1024" version="1.1" xmlns="http://www.w3.org/2000/svg" p-id="24591" xmlns:xlink="http://www.w3.org/1999/xlink" width="24" height="24"><path d="M831.616 768h-63.936v-0.512H640v63.936h127.744V832h63.936v-0.64h127.872v-63.872h-127.872V768z" fill="currentColor" p-id="24592"></path><path d="M564.288 925.184a33.6 33.6 0 0 0-33.6-33.6H287.36a156.608 156.608 0 0 1-156.416-156.416V286.848A156.544 156.544 0 0 1 287.36 130.432h448.384a156.608 156.608 0 0 1 156.416 156.416v238.784a33.6 33.6 0 0 0 67.2 0V286.848A223.936 223.936 0 0 0 735.68 63.232H287.36A223.808 223.808 0 0 0 63.68 286.72v448.32a223.808 223.808 0 0 0 223.616 223.488h243.392a33.344 33.344 0 0 0 33.6-33.344z" fill="currentColor" p-id="24593"></path></svg>