<svg xmlns="http://www.w3.org/2000/svg" xmlns:xlink="http://www.w3.org/1999/xlink" width="16" height="16" viewBox="0 0 16 16" fill="none"><g opacity="1"  transform="translate(0 0)  rotate(0)"><mask id="bg-mask-0" fill="white"><use transform="translate(0 0)  rotate(NaN)" xlink:href="#path_0"></use></mask><g mask="url(#bg-mask-0)" ><path  id="路径 1" style="fill:currentColor; opacity:1;" d="M11.9966,7.00333c0,-0.67893 -0.1306,-1.32803 -0.3918,-1.94732c-0.25247,-0.59859 -0.60903,-1.12879 -1.0697,-1.5906c-0.46077,-0.46188 -0.98979,-0.81937 -1.58706,-1.07247c-0.61819,-0.26197 -1.26643,-0.39295 -1.94473,-0.39295c-0.67849,0 -1.32735,0.13103 -1.94659,0.39308c-0.59849,0.25326 -1.12874,0.6109 -1.59075,1.07291c-0.46201,0.46201 -0.81965,0.99226 -1.07292,1.59075c-0.26205,0.61925 -0.39307,1.26811 -0.39307,1.9466c0,0.6783 0.13098,1.32654 0.39294,1.94473c0.2531,0.59727 0.61059,1.12629 1.07247,1.58704c0.46181,0.46067 0.99202,0.81723 1.59061,1.0697c0.61928,0.26127 1.26838,0.3919 1.94731,0.3919c0.67875,0 1.32723,-0.13057 1.94545,-0.3917c0.59739,-0.25233 1.12637,-0.60877 1.58694,-1.0693c0.46053,-0.46057 0.81697,-0.98954 1.0693,-1.58692c0.26107,-0.61823 0.3916,-1.26671 0.3916,-1.94545zM13.33,7.00333c0,0.85876 -0.1656,1.68017 -0.4968,2.46424c-0.31987,0.75729 -0.77143,1.4276 -1.3547,2.01093c-0.58333,0.58327 -1.25365,1.03483 -2.01095,1.3547c-0.78406,0.3312 -1.60547,0.4968 -2.46424,0.4968c-0.85872,0 -1.68055,-0.16553 -2.46549,-0.4966c-0.75825,-0.31987 -1.42961,-0.7713 -2.01409,-1.3543c-0.5848,-0.5834 -1.03762,-1.25367 -1.35846,-2.01081c-0.33242,-0.78444 -0.49862,-1.60609 -0.49862,-2.46496c0,-0.85883 0.16616,-1.6809 0.49849,-2.46622c0.3208,-0.75807 0.77347,-1.42939 1.35802,-2.01394c0.58455,-0.58455 1.25586,-1.03722 2.01394,-1.35802c0.78532,-0.33233 1.60739,-0.49849 2.46621,-0.49849c0.85887,0 1.68052,0.16621 2.46496,0.49862c0.75715,0.32085 1.4274,0.77367 2.01073,1.35847c0.58307,0.58448 1.03453,1.25584 1.3544,2.01408c0.33107,0.78495 0.4966,1.60678 0.4966,2.4655z"></path><path  id="路径 2" style="fill:currentColor; opacity:1;" d="M8.41355,5.25192c-0.18418,-0.18456 -0.39584,-0.3274 -0.63498,-0.42851c-0.24715,-0.10449 -0.50653,-0.15674 -0.77813,-0.15674c-0.27193,0 -0.53148,0.05225 -0.77863,0.15674c-0.23905,0.10107 -0.45104,0.24407 -0.63596,0.42899c-0.03095,0.03095 -0.06463,0.05859 -0.10103,0.08291c-0.03639,0.02432 -0.07481,0.04486 -0.11526,0.06161c-0.04044,0.01675 -0.08213,0.0294 -0.12506,0.03794c-0.04293,0.00854 -0.08629,0.01281 -0.13006,0.01281c-0.04377,0 -0.08713,-0.00427 -0.13006,-0.01281c-0.04293,-0.00854 -0.08462,-0.02119 -0.12506,-0.03794c-0.04044,-0.01675 -0.07886,-0.03729 -0.11526,-0.06161c-0.03639,-0.02432 -0.07007,-0.05196 -0.10102,-0.08291c-0.03095,-0.03095 -0.05859,-0.06462 -0.08291,-0.10102c-0.02432,-0.0364 -0.04486,-0.07482 -0.06161,-0.11526c-0.01675,-0.04044 -0.0294,-0.08213 -0.03794,-0.12506c-0.00854,-0.04293 -0.01281,-0.08629 -0.01281,-0.13006c0,-0.04377 0.00427,-0.08713 0.01281,-0.13006c0.00854,-0.04293 0.02119,-0.08462 0.03794,-0.12506c0.01675,-0.04045 0.03729,-0.07887 0.06161,-0.11526c0.02432,-0.0364 0.05196,-0.07007 0.08291,-0.10102c0.30755,-0.30756 0.66073,-0.54565 1.05953,-0.71426c0.41312,-0.17467 0.84574,-0.26201 1.29787,-0.26201c0.45179,0 0.88425,0.08734 1.29737,0.26201c0.39933,0.16883 0.7525,0.40708 1.05952,0.71474c0.03092,0.03099 0.05852,0.06469 0.08281,0.10111c0.02428,0.03643 0.04477,0.07487 0.06148,0.11533c0.01671,0.04045 0.02932,0.08215 0.03781,0.1251c0.00849,0.04294 0.01272,0.0863 0.01268,0.13007c-0.00005,0.04377 -0.00436,0.08712 -0.01295,0.13005c-0.00858,0.04292 -0.02127,0.08459 -0.03807,0.12502c-0.01679,0.04043 -0.03737,0.07882 -0.06172,0.11519c-0.02436,0.03637 -0.05203,0.07002 -0.08301,0.10094c-0.03099,0.03092 -0.06469,0.05852 -0.10111,0.08281c-0.03643,0.02428 -0.07487,0.04477 -0.11533,0.06148c-0.04046,0.01671 -0.08216,0.02932 -0.1251,0.03781c-0.04294,0.00849 -0.0863,0.01272 -0.13007,0.01268c-0.04377,-0.00005 -0.08712,-0.00436 -0.13005,-0.01295c-0.04292,-0.00859 -0.08459,-0.02128 -0.12502,-0.03807c-0.04043,-0.01679 -0.07882,-0.03737 -0.11519,-0.06172c-0.03637,-0.02436 -0.07002,-0.05203 -0.10094,-0.08301z"></path><path  id="路径 3" style="fill:currentColor; opacity:1;" d="M11.5453,10.6025l2.83,2.83c0.03093,0.03093 0.05857,0.0646 0.0829,0.101c0.02427,0.0364 0.0448,0.07483 0.0616,0.1153c0.01673,0.0404 0.02937,0.08207 0.0379,0.125c0.00853,0.04293 0.0128,0.0863 0.0128,0.1301c0,0.0438 -0.00427,0.08717 -0.0128,0.1301c-0.00853,0.04293 -0.02117,0.0846 -0.0379,0.125c-0.0168,0.04047 -0.03733,0.0789 -0.0616,0.1153c-0.02433,0.0364 -0.05197,0.07007 -0.0829,0.101c-0.031,0.03093 -0.0647,0.05857 -0.1011,0.0829c-0.0364,0.02433 -0.0748,0.04487 -0.1152,0.0616c-0.04047,0.01673 -0.08217,0.0294 -0.1251,0.038c-0.04293,0.00853 -0.08627,0.0128 -0.13,0.0128c-0.0438,0 -0.08717,-0.00427 -0.1301,-0.0128c-0.04293,-0.0086 -0.08463,-0.02127 -0.1251,-0.038c-0.0404,-0.01673 -0.0788,-0.03727 -0.1152,-0.0616c-0.0364,-0.02433 -0.0701,-0.05197 -0.1011,-0.0829l-2.83,-2.83c-0.03093,-0.03093 -0.05857,-0.0646 -0.0829,-0.101c-0.02427,-0.0364 -0.0448,-0.07483 -0.0616,-0.1153c-0.01673,-0.0404 -0.02937,-0.08207 -0.0379,-0.125c-0.00853,-0.04293 -0.0128,-0.0863 -0.0128,-0.1301c0,-0.0438 0.00427,-0.08717 0.0128,-0.1301c0.00853,-0.04293 0.02117,-0.0846 0.0379,-0.125c0.0168,-0.04047 0.03733,-0.0789 0.0616,-0.1153c0.02433,-0.0364 0.05197,-0.07007 0.0829,-0.101c0.031,-0.03093 0.0647,-0.05857 0.1011,-0.0829c0.0364,-0.02433 0.0748,-0.04487 0.1152,-0.0616c0.04047,-0.01673 0.08217,-0.0294 0.1251,-0.038c0.04293,-0.00853 0.0863,-0.0128 0.1301,-0.0128c0.04373,0 0.08707,0.00427 0.13,0.0128c0.04293,0.0086 0.08463,0.02127 0.1251,0.038c0.0404,0.01673 0.0788,0.03727 0.1152,0.0616c0.0364,0.02433 0.0701,0.05197 0.1011,0.0829z"></path></g></g><defs><rect id="path_0" x="0" y="0" width="16" height="16" /></defs></svg>