<svg xmlns="http://www.w3.org/2000/svg" xmlns:xlink="http://www.w3.org/1999/xlink" width="20" height="20" viewBox="0 0 20 20" fill="none">
<rect  x="0" y="2" width="20" height="3.5" rx="0.5"    fill="#B2BBD6" >
</rect>
<rect  x="0" y="6.1666259765625" width="6" height="3.5" rx="0.5"    fill="#B2BBD6" >
</rect>
<rect  x="0" y="10.3333740234375" width="6" height="3.5" rx="0.5"    fill="#B2BBD6" >
</rect>
<rect  x="0" y="14.5" width="6" height="3.5" rx="0.5"    fill="#B2BBD6" >
</rect>
<rect  x="7" y="6.1666259765625" width="6" height="3.5" rx="0.5"    fill="#B2BBD6" >
</rect>
<rect  x="7" y="10.3333740234375" width="6" height="3.5" rx="0.5"    fill="#B2BBD6" >
</rect>
<rect  x="7" y="14.5" width="6" height="3.5" rx="0.5"    fill="#B2BBD6" >
</rect>
<path d="M14.5 6.16663L19.5 6.16663C19.7761 6.16663 20 6.39048 20 6.66663L20 9.16663C20 9.44277 19.7761 9.66663 19.5 9.66663L14.5 9.66663C14.2239 9.66663 14 9.44277 14 9.16663L14 6.66663C14 6.39048 14.2239 6.16663 14.5 6.16663ZM14.5 10.3333L19.5 10.3333C19.7761 10.3333 20 10.5572 20 10.8333L20 13.3333C20 13.6095 19.7761 13.8333 19.5 13.8333L14.5 13.8333C14.2239 13.8333 14 13.6095 14 13.3333L14 10.8333C14 10.5572 14.2239 10.3333 14.5 10.3333ZM19.5 14.5L14.5 14.5C14.2239 14.5 14 14.7239 14 15L14 17.5C14 17.7762 14.2239 18 14.5 18L19.5 18C19.7761 18 20 17.7762 20 17.5L20 15C20 14.7239 19.7761 14.5 19.5 14.5Z" fill-rule="evenodd"  fill="url(#linear_fill_74_1)" fill-opacity="1">
</path>
<defs>
<linearGradient id="linear_fill_74_1" x1="17" y1="6.1666259765625" x2="17" y2="18" gradientUnits="userSpaceOnUse">
<stop offset="0" stop-color="#376AF5"  />
<stop offset="0.9997" stop-color="#45AEFF"  />
</linearGradient>
</defs>
</svg>
