<svg xmlns="http://www.w3.org/2000/svg" xmlns:xlink="http://www.w3.org/1999/xlink" width="20" height="20" viewBox="0 0 20 20" fill="none">
<rect  x="1" y="13" width="18" height="6" rx="0.5"    fill="#B2BBD6" >
</rect>
<path d="M1.5 1L9.5 1C9.77614 1 10 1.22386 10 1.5L10 11.5C10 11.7761 9.77614 12 9.5 12L1.5 12C1.22386 12 1 11.7761 1 11.5L1 1.5C1 1.22386 1.22386 1 1.5 1ZM11.5 1L18.5 1C18.7761 1 19 1.22386 19 1.5L19 5.5C19 5.77614 18.7761 6 18.5 6L11.5 6C11.2239 6 11 5.77614 11 5.5L11 1.5C11 1.22386 11.2239 1 11.5 1ZM18.5 7L11.5 7C11.2239 7 11 7.22386 11 7.5L11 11.5C11 11.7761 11.2239 12 11.5 12L18.5 12C18.7761 12 19 11.7761 19 11.5L19 7.5C19 7.22386 18.7761 7 18.5 7Z" fill-rule="evenodd"  fill="url(#linear_fill_74_4)" fill-opacity="1">
</path>
<defs>
<linearGradient id="linear_fill_74_4" x1="10" y1="1" x2="10" y2="12" gradientUnits="userSpaceOnUse">
<stop offset="0" stop-color="#376AF5"  />
<stop offset="1" stop-color="#45AEFF"  />
</linearGradient>
</defs>
</svg>
