<svg xmlns="http://www.w3.org/2000/svg" xmlns:xlink="http://www.w3.org/1999/xlink" width="20" height="20" viewBox="0 0 20 20" fill="none">
<path d="M6.00504 2.83504L7.00504 2.83504C7.4662 2.83504 7.83504 2.4662 7.83504 2.00504C7.83504 1.54388 7.4662 1.16504 7.00504 1.16504L2.50504 1.16504C1.76774 1.16504 1.16504 1.76774 1.16504 2.50504L1.16504 7.00504C1.16504 7.4662 1.54388 7.83504 2.00504 7.83504C2.4662 7.83504 2.83504 7.4662 2.83504 7.00504L2.83504 2.83504L6.00504 2.83504ZM12.165 2.00504C12.165 2.4662 12.5439 2.83504 13.005 2.83504L17.165 2.83504L17.165 7.005C17.165 7.46617 17.5439 7.83508 18.0051 7.83508C18.4663 7.83508 18.835 7.46617 18.835 7.005L18.835 2.50504C18.835 1.76774 18.2423 1.16504 17.505 1.16504L13.005 1.16504C12.5439 1.16504 12.165 1.54388 12.165 2.00504ZM2.83504 13.005L2.83504 17.165L7.00504 17.165C7.4662 17.165 7.83504 17.5438 7.83504 18.005C7.83504 18.4662 7.4662 18.835 7.00504 18.835L2.50504 18.835C1.76774 18.835 1.16504 18.2423 1.16504 17.505L1.16504 13.005C1.16504 12.5439 1.54388 12.165 2.00504 12.165C2.4662 12.165 2.83504 12.5439 2.83504 13.005ZM18.835 13.005C18.835 12.5439 18.4662 12.165 18.005 12.165C17.5438 12.165 17.165 12.5439 17.165 13.005L17.165 17.165L13.005 17.165C12.5439 17.165 12.165 17.5438 12.165 18.005C12.165 18.4662 12.5439 18.835 13.005 18.835L17.505 18.835C18.2423 18.835 18.835 18.2423 18.835 17.505L18.835 13.005Z" fill-rule="evenodd"  fill="#B2BBD6" >
</path>
<path d="M9.5 6L5.5 6C5.22386 6 5 6.22386 5 6.5L5 7.5C5 7.77614 5.22386 8 5.5 8L9 8L9 14.5C9 14.7761 9.22386 15 9.5 15L10.5 15C10.7761 15 11 14.7761 11 14.5L11 8L14.5 8C14.7761 8 15 7.77614 15 7.5L15 6.5C15 6.22386 14.7761 6 14.5 6L9.5 6Z" fill-rule="evenodd"  fill="url(#linear_fill_74_23)" >
</path>
<defs>
<linearGradient id="linear_fill_74_23" x1="10" y1="6" x2="10" y2="15" gradientUnits="userSpaceOnUse">
<stop offset="0" stop-color="#376AF5"  />
<stop offset="0.9998" stop-color="#45AEFF"  />
</linearGradient>
</defs>
</svg>
