<svg xmlns="http://www.w3.org/2000/svg" xmlns:xlink="http://www.w3.org/1999/xlink" width="20" height="20" viewBox="0 0 20 20" fill="none">
<path    stroke="currentColor" stroke-width="1.67"    d="M4.69812 7.29631L1.69999 4.29818L4.69812 1.30005">
</path>
<path   fill="currentColor"  d="M6.96674 17.465L11.7001 17.465L11.7001 18.3L11.7001 17.465C15.1049 17.465 17.8651 14.7049 17.8651 11.3L18.7001 11.3L17.8651 11.3C17.8651 7.89521 15.1049 5.13505 11.7001 5.13505L11.7001 4.30005L11.7001 5.13505L2.70007 5.13505L2.70007 3.46505L11.7001 3.46505L11.7001 3.46505C16.0272 3.46505 19.5351 6.9729 19.5351 11.3L19.5351 11.3C19.5351 15.6272 16.0272 19.135 11.7001 19.135L11.7001 19.135L6.96674 19.135L6.96674 17.465Z">
</path>
</svg>
