<?xml version="1.0" standalone="no"?><!DOCTYPE svg PUBLIC "-//W3C//DTD SVG 1.1//EN" "http://www.w3.org/Graphics/SVG/1.1/DTD/svg11.dtd"><svg t="1730687831275" class="icon" viewBox="0 0 1024 1024" version="1.1" xmlns="http://www.w3.org/2000/svg" p-id="6143" xmlns:xlink="http://www.w3.org/1999/xlink" width="24" height="24"><path d="M213.333333 938.666667h597.333334a42.666667 42.666667 0 0 0 42.666666-42.666667V469.333333a42.666667 42.666667 0 0 0-42.666666-42.666666H384V298.666667c0-70.570667 57.429333-128 128-128s128 57.429333 128 128h85.333333c0-117.632-95.701333-213.333333-213.333333-213.333334S298.666667 181.034667 298.666667 298.666667v128H213.333333a42.666667 42.666667 0 0 0-42.666666 42.666666v426.666667a42.666667 42.666667 0 0 0 42.666666 42.666667z m42.666667-426.666667h512v341.333333h-213.333333v-97.194666c25.386667-14.805333 42.666667-42.026667 42.666666-73.472 0-47.061333-38.272-85.333333-85.333333-85.333334s-85.333333 38.272-85.333333 85.333334c0 31.402667 17.28 58.666667 42.666666 73.472V853.333333H256v-341.333333z" fill="CurrentColor" p-id="6144"></path></svg>